# xmcd
#
# Track frame offsets: 
#        182
#        35717
#        57855
#        73172
#        89740
#        112800
#        145955
#        175572
#        199582
#
# Disc length: 2820 seconds
#
# Revision: 1
# Processed by: cddbd v1.5.2PL0 Copyright (c) Steve Scherf et al.
# Submitted via: ExactAudioCopy v0.90b4
#
DISCID=7e0b0209
DTITLE=Standarte - Standarte
DYEAR=1996
DGENRE=Progressive Rock
TTITLE0=Dream Love Sequence Nr. 9 - In The Arms Of Fear, Winter Is Col
TTITLE0=d, Mind The Doors
TTITLE1=One Strange December Evening - Spider Boy, Sinaesthesia
TTITLE2=As I Wandered - Black River Of Sorrow
TTITLE3=Tolerance Down - Badazz Shuffle
TTITLE4=Beat Pimp Muzak - Scumtown
TTITLE5=A War Was Declared - Charge Of The Light Brigade, Peace In The
TTITLE5=Garden
TTITLE6=In My Time Of Dying - Wasn't Life Fantastic?
TTITLE7=Traumland
TTITLE8=I Want You
EXTD=
EXTT0=
EXTT1=
EXTT2=
EXTT3=
EXTT4=
EXTT5=
EXTT6=
EXTT7=
EXTT8=
PLAYORDER=
